<svg width="436" height="527" viewBox="0 0 436 527" fill="none" xmlns="http://www.w3.org/2000/svg">
<circle cx="217.87" cy="308.526" r="213.87" fill="#E2FADB" stroke="#242F40" stroke-width="8"/>
<path fill-rule="evenodd" clip-rule="evenodd" d="M377.742 493.75C385.831 493.36 382.578 479.205 381.997 474.007C375.592 455.02 377.098 434.306 374.579 414.405C373.009 395.827 370.993 377.308 369.297 358.744C365.966 321.062 342.044 244.352 314.745 232.015C311.306 216.922 297.103 202.833 279.133 202.833C266.876 188.321 252.124 178.108 233.202 180.17C225.382 180.526 217.799 188.821 210.307 190.423C206.111 191.002 168.881 189.513 161.424 193.943C156.229 196.611 151.539 201.541 153.067 207.818C155.504 215.423 147.93 207.194 132.131 215.311C99.9145 234.666 119.166 260.558 120.019 261.36C99.9145 289.34 82.3423 312.039 74.2119 346.239C68.9426 371.629 69.5358 397.84 65.1208 423.361C63.562 432.21 61.1705 440.757 58.5828 449.35C55.7782 460.596 54.4144 488.626 52.8686 488.877C50.0527 489.577 54.496 495.36 57.4798 495.365C140.205 509.09 224.233 495.933 307.402 493.783C330.841 492.968 354.304 492.78 377.742 493.75Z" fill="white"/>
<path fill-rule="evenodd" clip-rule="evenodd" d="M252.36 263.829C252.398 263.45 252.909 263.451 252.948 263.829L253.532 269.469C254.243 276.357 254.927 283.232 255.423 290.152C256.041 298.781 256.455 307.408 256.654 316.057C257.349 346.178 257.487 376.315 257.546 406.444C261.619 406.161 265.693 405.89 269.769 405.627C272.534 405.448 275.299 405.277 278.065 405.108L285.117 404.68L288.021 404.502C289.983 404.381 292.212 403.886 293.584 405.625C294.133 406.321 294.408 407.225 293.896 408.051C292.715 409.957 290.902 409.89 288.85 409.973C286.915 410.051 284.979 410.128 283.043 410.202C278.895 410.364 274.748 410.516 270.599 410.632C266.245 410.754 261.892 410.853 257.54 410.928C257.496 423.647 256.97 436.35 256.401 449.055L256.143 454.773C255.447 470.234 254.698 485.709 253.635 501.15C253.547 502.414 251.759 502.411 251.673 501.15C250.475 483.761 249.685 466.335 248.901 448.923C248.332 436.298 248.002 423.67 247.844 411.04C247.269 411.044 246.694 411.052 246.118 411.054C229.782 411.125 213.45 411.196 197.113 411.043C197.14 411.075 197.167 411.108 197.185 411.15C198.367 413.942 198.48 417.504 198.451 420.5C198.418 423.936 197.955 427.33 197.164 430.672C194.33 442.642 187.018 453.363 178.692 462.227L178.42 462.516C176.456 464.592 174.202 466.677 172.996 469.322C171.764 472.021 171.337 475.18 170.729 478.081L170.658 478.414L168.281 489.395C167.526 492.883 167.312 497.97 164.552 500.487C161.976 502.835 158.565 501.608 157.353 498.585C156.406 496.226 157.349 493.634 157.91 491.276L162.301 472.811C163.023 469.799 163.811 466.768 165.369 464.063C166.964 461.293 169.303 459.284 171.689 457.229C176.208 453.338 180.356 448.882 183.864 444.059C187.371 439.237 190.368 433.922 192.47 428.333C193.523 425.535 194.385 422.628 194.98 419.698C195.545 416.917 195.54 414.037 196.145 411.286C196.187 411.096 196.347 410.966 196.531 410.908C196.487 410.786 196.554 410.62 196.725 410.609L210.086 409.75C221.962 408.984 233.838 408.198 245.704 407.3L247.8 407.148C247.638 390.297 247.776 373.442 248.08 356.585C248.359 341.126 248.365 325.664 248.824 310.207C249.053 302.536 249.546 294.883 250.094 287.227C250.655 279.398 251.553 271.635 252.36 263.829ZM126.91 353.462C126.767 352.603 127.847 352.072 128.345 352.857C134.034 361.826 136.777 371.57 137.933 382.066C138.954 391.33 138.653 400.728 138.145 410.016C137.602 419.923 136.969 429.828 136.329 439.729L135.346 454.913L132.878 492.978C132.702 495.701 132.084 498.177 129.74 499.442C129.443 499.69 129.134 499.913 128.774 500.105C127.507 500.782 125.828 500.44 125.096 499.141L125.389 499.334C125.645 499.495 125.358 499.27 124.528 498.66L123.823 497.748C123.311 496.978 122.984 496.222 122.853 495.307C122.649 493.885 122.913 492.326 123.006 490.897L124.624 465.937C125.882 446.532 127.35 427.133 128.458 407.719C128.973 398.67 129.335 389.613 129.09 380.549C128.846 371.534 128.387 362.367 126.91 353.462ZM176.126 186.371L176.441 186.318C187.741 184.441 200.029 184.792 210.356 190.241C210.441 190.285 210.403 190.427 210.307 190.423L206.983 190.29C196.46 189.878 185.969 189.634 175.622 192.107L174.563 192.363C170.837 193.272 166.945 194.385 163.952 196.846C161.092 199.199 159.667 202.829 158.298 206.171L158.114 206.612C156.725 209.913 154.966 213.043 151.92 215.106C147.975 217.779 143.23 217.452 138.706 217.815C130.741 218.455 124.229 224.229 120.989 231.295C119.027 235.573 118.19 240.37 118.024 245.049C117.939 247.431 117.927 249.906 118.245 252.272C118.346 253.029 119.281 255.785 119.758 255.719C120.817 255.572 121.786 256.125 122.116 256.972C124.733 254.443 127.426 251.987 130.205 249.619C137.132 243.718 144.594 238.369 152.452 233.774C158.449 230.266 164.775 226.79 171.325 224.163C170.806 224.152 170.294 224.255 169.799 224.513C169.582 224.626 169.367 224.354 169.538 224.174C171.601 222.002 174.072 221.693 176.564 222.272C177.096 222.103 177.628 221.94 178.162 221.784C178.428 221.707 178.56 222.073 178.343 222.215L177.731 222.606C180.449 223.516 183.118 225.306 185.23 226.719C191.299 230.776 196.641 235.736 202.056 240.603L203.04 241.485C207.807 245.742 212.694 249.879 218.11 253.294C220.944 255.081 223.922 256.735 227.045 257.965C229.724 259.02 234.085 259.685 235.34 262.516C236.455 263.871 235.989 265.601 234.683 266.513C232.48 268.937 228.074 267.371 225.449 266.361C222.285 265.143 219.22 263.68 216.296 261.964C210.621 258.631 205.387 254.487 200.512 250.078C195.421 245.474 190.618 240.583 185.666 235.835C183.521 233.777 181.425 231.671 179.276 229.617L178.197 228.594C177.1 227.565 175.537 225.962 173.867 224.991C170.719 226.869 167.523 228.67 164.404 230.596C160.05 233.285 155.825 236.168 151.664 239.146C143.655 244.878 136.065 251.299 129.018 258.181C116.096 270.802 105.086 285.214 95.4675 300.475L94.7371 301.638C89.2716 310.372 84.103 319.389 80.4382 329.04C76.4059 339.661 74.4447 350.829 73.3794 362.103C72.322 373.296 71.9654 384.546 70.7837 395.729C69.5719 407.198 67.1842 418.413 64.4683 429.608L63.8206 432.262C61.3632 442.288 58.8268 452.314 57.5636 462.577C56.8892 468.058 56.4836 473.615 56.5753 479.141C56.6674 484.7 57.5406 490.135 58.2451 495.635C58.515 497.742 56.4422 499.501 54.5874 499.78C52.4542 500.1 50.6216 498.739 49.9585 496.757C47.8915 490.578 47.516 483.747 47.5809 477.262C47.6462 470.677 48.4863 464.136 49.6684 457.665C51.9933 444.937 55.5811 432.473 58.5824 419.897C61.2276 408.813 63.0028 397.709 63.9597 386.354C64.9531 374.573 65.5479 362.753 67.36 351.057C69.1487 339.51 72.5142 328.481 77.5897 317.953C82.211 308.367 87.9717 299.344 94.0112 290.598C101.345 279.978 109.401 269.872 118.405 260.665C117.596 260.63 116.765 260.368 116.003 259.893C113.669 258.437 112.583 255.589 112.249 252.989C111.467 246.906 111.656 240.556 113.219 234.609C115.742 225.015 122.29 216.491 131.78 213.033C134.222 212.143 136.819 211.818 139.407 211.754C141.864 211.693 144.546 212.013 146.916 211.234C150.689 209.994 152.306 205.549 153.722 202.181L153.788 202.026C155.604 197.733 157.784 194.053 161.718 191.372C165.915 188.512 171.174 187.211 176.126 186.371ZM283.495 203.349C286.89 202.171 291.136 203.24 294.457 204.27C298.156 205.417 301.575 207.53 304.506 210.039C307.598 212.685 310.154 215.953 311.959 219.603L312.132 219.955C313.781 223.341 315.659 227.99 314.827 231.71C314.803 231.815 314.776 231.917 314.745 232.015C321.482 235.333 327.704 239.488 333.123 244.755C339.432 250.887 344.774 257.865 349.295 265.403C367.25 295.345 370.41 331.304 372.531 365.45L373.06 374.107C374.211 392.803 375.559 411.454 379.059 429.891L379.315 431.222C383.056 450.526 388.412 469.977 387.87 489.78C387.707 495.713 378.941 495.673 378.687 489.78C377.73 467.599 372.555 446.183 369.051 424.349C362.885 385.936 365.975 346.334 357.239 308.305C353.81 293.381 348.499 278.905 340.916 265.584C337.17 259.003 332.884 252.644 327.863 246.966C323.544 242.081 319.054 237.38 314.006 233.273C312.393 234.889 309.17 234.066 308.328 231.71C307.75 230.09 307.918 228.197 307.547 226.501C307.202 224.927 306.727 223.367 306.094 221.884C304.833 218.93 302.981 216.094 300.843 213.703C298.534 211.118 295.879 208.971 292.909 207.198C289.919 205.413 286.648 204.88 283.495 203.576C283.388 203.532 283.378 203.39 283.495 203.349ZM296.687 408.643C296.692 408.488 296.876 408.414 296.989 408.518C298.18 409.614 298.899 411.187 299.775 412.534C300.786 414.089 301.847 415.611 302.96 417.094C305.189 420.065 307.671 422.866 310.172 425.61C312.499 428.161 314.979 430.605 317.551 432.909C320.338 435.406 323.461 437.633 325.993 440.397C331.277 446.166 332.131 454.082 333.245 461.516L333.367 462.32C334.047 466.732 334.656 471.155 335.205 475.585C335.472 477.739 335.739 479.896 335.956 482.056L336.023 482.741C336.217 484.855 336.269 487.001 335.055 488.849C333.755 490.825 330.801 491.518 329.044 489.623C326.025 486.367 326.591 480.582 326.198 476.393C325.874 472.929 325.506 469.469 325.094 466.015L324.884 464.288C324.399 460.358 324.005 456.349 323.106 452.487C322.313 449.087 320.804 446.52 318.326 444.056C315.831 441.574 313.237 439.258 310.934 436.585C308.491 433.75 306.287 430.711 304.301 427.539C302.602 424.825 301.241 421.873 299.994 418.923L299.787 418.432C298.581 415.556 296.593 411.812 296.687 408.643ZM340.268 285.104C340.295 284.702 340.888 284.696 340.896 285.104C340.971 288.554 341.043 292.004 341.115 295.455C341.691 323.258 341.336 351.127 344.125 378.836C345.44 391.9 347.862 404.772 350.664 417.591C352.098 424.15 353.603 430.693 355.032 437.253C356.425 443.647 357.919 450.071 359.025 456.524C360.11 462.866 361.083 469.257 361.52 475.681L361.573 476.519C361.761 479.63 362.658 484.207 360.945 486.965C359.089 489.953 355.536 490.006 353.547 487.154C351.68 484.476 352.144 479.713 351.814 476.519C351.479 473.264 351.124 470.007 350.722 466.76C349.936 460.426 348.901 454.106 347.824 447.815C345.582 434.714 342.329 421.779 339.929 408.699C337.468 395.296 335.719 381.798 335.645 368.152C335.572 354.39 337.029 340.655 337.764 326.923C338.51 312.976 339.359 299.04 340.268 285.104ZM208.963 198.625C209.709 196.111 212.343 194.54 214.912 195.246C217.267 195.893 219.211 198.752 218.29 201.197C217.286 203.866 215.53 206.142 214.05 208.567C212.683 210.809 210.689 212.574 209.296 214.775L210.831 216.43C211.599 217.256 212.369 218.077 213.147 218.883L215.824 221.656C217.909 223.812 220.006 225.956 222.163 228.037C228.506 234.156 234.949 240.075 242.052 245.315C243.669 246.508 245.299 247.694 246.974 248.804L247.599 249.218C248.748 249.971 250.03 250.711 251.419 250.583C254.792 250.273 257.841 246.689 260.159 244.459L260.28 244.343C266.026 238.875 271.346 232.896 275.997 226.468C277.029 225.04 278.029 223.587 279.003 222.118C276.754 219.49 277.291 214.361 277.167 211.175C277.08 208.934 277.073 206.693 277.061 204.451L277.055 203.999C277.028 202.548 276.962 201.156 277.904 199.962C277.959 199.893 278.072 199.895 278.142 199.931C279.431 200.607 279.829 201.739 280.379 203.008L280.437 203.14C281.106 204.664 281.748 206.202 282.396 207.734C283.076 209.339 283.699 210.967 284.33 212.591C284.624 213.346 284.904 214.104 285.178 214.867C285.346 215.354 285.518 215.838 285.696 216.322L285.738 216.359C285.972 216.558 286.171 216.768 286.342 216.985C287.062 217.345 287.634 218.001 287.902 218.965C288.486 221.063 287.277 222.774 286.199 224.439C281.821 231.206 276.83 237.654 271.281 243.503C268.525 246.409 265.627 249.184 262.609 251.816L262.081 252.273C259.37 254.604 256.426 256.811 252.805 257.357C248.568 257.994 245.12 255.887 241.876 253.459L241.552 253.215C238.477 250.886 235.464 248.476 232.545 245.955C226.593 240.815 220.931 235.296 215.905 229.241C211.017 223.351 206.185 216.766 203.172 209.679C202.988 209.247 203.471 208.795 203.85 209.156C205.322 210.557 206.738 212.035 208.137 213.531C208.176 211.329 207.769 209.107 207.995 206.89C208.271 204.196 208.192 201.219 208.963 198.625Z" fill="black"/>
<path fill-rule="evenodd" clip-rule="evenodd" d="M239.069 25.6224C258.621 25.6224 282.081 35.0953 284.076 35.2848L284.13 35.2877C285.179 35.2877 289.279 38.4097 296.431 44.6538L288.685 59.7523L289.312 60.3505C292.312 63.2247 294.872 65.8444 296.894 67.9096C313.398 84.7716 316.365 150.977 312.475 174.064C308.585 197.152 301.381 219.744 267.842 219.744C234.302 219.744 196.989 199.59 191.241 193.314C187.409 189.13 183.104 187.125 178.328 187.3C178.131 187.053 177.937 186.806 177.744 186.56L177.041 186.46C170.43 185.503 165.693 184.215 162.831 182.597C157.239 179.436 151.094 162.816 151.094 159.155C151.094 155.53 141.917 129.163 141.733 126.373L141.731 126.296C141.731 123.963 129.742 113.241 129.742 109.835C129.742 106.43 127.326 106.637 129.742 94.6371L130.444 91.1119C133.016 78.3359 138.049 57.1806 157.239 47.9879C178.328 37.8861 219.318 25.6224 239.069 25.6224Z" fill="white"/>
<path fill-rule="evenodd" clip-rule="evenodd" d="M153.984 47.5134C164.502 36.3569 224.211 19.1005 254.42 22.7584L255.326 22.8757C257.737 23.1812 260.112 23.6439 262.457 24.2723C270.036 26.0413 277.865 28.7198 284.127 33.1938C289.355 36.8539 305.847 42.8311 300.986 52.406C302.788 55.8186 303.461 60.0347 302.243 63.3958C302.09 64.5568 301.732 65.6261 301.274 66.7347C305.124 72.4133 308.173 78.8353 310.641 84.9434C314.953 100.316 317.637 116.313 318.03 131.997C319.338 161.795 316.068 197.388 290.1 216.656C274.412 228.866 249.839 229.276 232.21 214.137C231.209 212.954 226.504 209.761 228.075 209.201C228.542 209.694 229.022 210.174 229.511 210.646C229.489 210.593 229.485 210.541 229.494 210.484L229.034 210.068C228.167 209.267 227.045 208.105 228.323 208.332C228.38 208.398 228.441 208.455 228.502 208.52C228.773 208.682 228.977 208.823 229.136 208.947L229.218 209.013L229.193 208.986C228.457 208.202 228.015 207.401 229.116 207.912L229.262 207.983C229.752 208.498 230.249 208.991 230.756 209.472C230.747 209.415 230.756 209.358 230.787 209.297L230.314 208.841C229.853 208.389 229.924 208.388 230.149 208.023C229.169 206.65 230.998 207.465 231.127 208.001C232.271 207.73 233.276 209.877 234.013 210.139C266.331 234.969 313.229 212.937 312.469 143.749L312.458 142.395C312.236 120.272 310.373 97.5331 301.216 77.5063C300.326 75.5772 299.33 73.7004 298.234 71.8848C297.478 70.5231 296.67 69.1962 295.801 67.9043C293.368 67.7079 290.966 67.2628 288.6 66.5732C287.787 66.368 286.984 66.1411 286.18 65.8748C274.441 66.5147 262.964 67.2108 251.192 67.8707L247.515 68.0996C237.543 68.7403 227.23 69.7665 219.182 75.9307C211.286 81.5426 211.251 92.6088 204.492 98.7702C194.853 105.308 194.783 111.203 192.927 120.837C193.064 128.1 198.103 138.652 188.856 141.708C190.416 143.931 188.242 142.863 188.071 142.084C188.053 142.088 188.036 142.092 188.023 142.092C189.413 144.675 187.369 143.049 187.189 142.219C187.079 142.188 186.97 142.11 186.861 142.001C188.262 144.263 185.998 142.679 186.132 142.267C183.425 138.11 177.855 137.464 173.929 138.566C173.881 138.714 173.707 138.727 173.598 138.649C156.903 142.264 161.211 176.803 178.319 173.464C179.051 173.315 179.034 173.666 179.179 173.7C178.784 172.663 179.898 173.085 179.886 173.303L179.954 173.3C180.008 173.295 179.986 173.289 180.026 173.303C179.644 171.182 181.794 174.255 181.624 174.381C181.69 174.342 181.764 174.32 181.83 174.311L181.756 174.11C181.399 173.16 181.43 173.555 181.432 173.01C181.164 172.338 181.144 172.632 181.207 172.194C182.15 171.464 182.428 173.678 182.742 173.84C182.203 173.089 182.632 172.476 183.14 172.883C186.993 180.983 191.971 188.594 198.403 194.589C199.107 195.143 199.819 195.688 200.556 196.203C203.292 198.585 207.489 200.117 210.051 202.226C210.051 202.261 210.034 202.305 210.007 202.349L210.066 202.402L210.125 202.458L211.016 202.886C211.278 203.108 211.514 203.357 211.723 203.632C211.946 203.889 212.142 204.173 212.309 204.474C212.392 204.841 212.208 204.994 211.859 204.836C211.706 204.784 211.553 204.723 211.4 204.666C211.409 204.679 211.413 204.688 211.422 204.697C211.472 204.773 211.812 205.559 211.421 205.431L211.374 205.413C211.16 205.334 210.946 205.247 210.737 205.164C210.986 205.474 211.212 205.81 211.413 206.093C211.628 206.316 211.758 206.578 211.811 206.875C211.802 207.041 211.711 207.11 211.545 207.089C211.291 207.006 211.042 206.918 210.793 206.827L210.864 206.962C211.04 207.308 211.29 207.889 210.846 207.695C210.465 207.577 210.099 207.442 209.732 207.294C209.701 207.355 209.64 207.377 209.518 207.32C208.352 206.905 207.225 206.399 206.147 205.801C205.199 205.111 204.242 204.435 203.291 203.75C202.395 203.213 201.53 202.615 200.705 201.943C195.182 198.378 190.347 193.849 186.512 188.806C180.097 194.358 167.271 189.054 159.337 184.707C152.319 180.823 149.561 173.641 148.847 165.897C147.365 155.472 138.84 151.904 139.433 129.029C139.42 129.034 139.406 129.034 139.389 129.034C139.079 128.942 138.778 128.82 138.494 128.663C138.201 128.523 137.926 128.357 137.668 128.156L137.349 127.716C137.184 127.624 137.035 127.528 136.922 127.432L136.863 127.508C136.677 127.733 136.802 127.394 136.813 127.327L136.259 126.574C134.946 124.783 133.505 122.772 132.331 121.164L132.294 121.23C132.268 121.279 132.254 121.315 132.266 121.33C129.474 117.32 126.847 112.476 126.117 107.787C125.256 104.175 125.592 100.453 126.344 97.1073C129.567 85.3908 140.123 58.8772 153.984 47.5134ZM229.776 209.547L229.601 209.391L229.755 209.584C229.836 209.684 229.918 209.773 230.053 209.864C230.044 209.834 230.044 209.803 230.048 209.768C229.959 209.7 229.868 209.626 229.776 209.547ZM254.286 28.6456C233.8 26.8854 213.651 31.3957 194.103 36.8552L192.754 37.2426C181.639 40.4123 169.885 43.2646 160.492 50.0491C147.368 60.0949 140.591 76.076 134.677 90.8311C129.512 101.794 132.152 114.155 139.935 121.81C140.744 114.204 142.125 106.819 144.282 99.4942C144.733 98.3499 144.392 97.975 145.362 97.8257C146.828 117.565 139.609 132.15 153.895 155.545C160.093 166.583 152.918 174.66 170.422 180.469L170.895 180.65C174.542 182.025 178.524 183.111 182.096 182.342L181.776 181.822C181.45 181.286 181.351 181.026 181.825 180.797C181.813 180.771 181.795 180.744 181.777 180.714C181.393 179.989 181.022 179.256 180.668 178.514C180.524 178.562 180.38 178.597 180.231 178.636C180.328 178.815 180.34 178.994 180.07 179.055C179.108 179.385 178.119 179.518 177.108 179.456L176.891 179.439C175.748 179.37 175.028 179.161 174.383 178.968C174.17 178.933 173.956 178.898 173.746 178.855C171.674 178.395 169.48 177.227 168.06 176.07C151.876 166.884 153.549 135.612 173.497 132.656C173.907 112.967 183.277 79.7496 198.829 60.9879C212.886 43.7302 251.263 36.2503 277.962 38.8878C278.351 39.0165 278.74 39.1466 279.13 39.278C283.249 39.6437 287.174 41.4777 291.297 42.3296C288.337 40.1129 284.979 38.6364 281.521 37.3816C274.63 33.1694 266.731 30.8903 259.099 29.2828C257.518 28.8944 255.916 28.6805 254.286 28.6456ZM172.584 148.473C173.657 147.891 173.534 148.453 173.781 148.29C181.496 147.661 189.815 154.411 194.128 160.039C193.787 160.393 192.866 159.345 192.704 159.179C192.682 159.201 192.656 159.219 192.63 159.227L192.75 159.397C194.498 161.904 191.033 158.954 190.708 158.346C190.651 158.376 190.595 158.394 190.529 158.381C190.804 158.65 191.643 159.352 191.787 159.851L192.009 160.036C194.107 161.831 193.933 163.181 191.552 160.633C191.608 160.751 191.63 160.86 191.59 160.947L191.672 161.002C192.843 161.819 193.806 164.099 191.359 161.759C191.614 163.468 188.934 160.164 188.848 160.187C184.211 156.55 177.383 153.012 171.567 152.537L171.367 152.514C170.299 152.376 169.794 152.06 170.169 151.362C168.855 151.05 169.163 150.403 169.785 150.424C168.858 149.815 169.692 149.232 170.23 149.46C169.86 148.436 171.344 149.118 171.479 148.975C172.249 147.788 172.457 148.778 172.584 148.473ZM156.412 85.035C160.118 83.6785 171.064 87.7393 170.188 93.1172C169.667 94.3519 167.949 95.0594 166.741 94.3624L165.165 93.3045C162.422 91.4688 159.949 89.8592 157.004 88.2582C155.401 87.4634 154.711 85.7761 156.412 85.035ZM177.495 77.0431L176.064 76.1123C168.341 71.061 157.423 63.4071 176.786 71.326C178.992 72.2718 181.924 72.8313 183.129 74.9315C185.02 78.8024 180.042 79.0625 177.495 77.0431ZM178.363 54.3786C177.743 52.0283 185.455 54.7862 187.699 55.5134L188.041 55.6424C190.225 56.4556 192.728 57.2099 194.034 59.0931C195.564 61.6953 192.467 62.2343 190.549 61.0589C186.615 58.49 182.302 56.5517 178.363 54.3786ZM197.972 43.4303C193.632 38.6933 205.248 43.2312 206.988 44.4908L207.038 44.5279C208.336 45.4414 208.073 47.409 206.853 47.9868C203.382 48.0527 200.828 45.1617 197.972 43.4303ZM217.723 38.2403C210.823 33.2844 219.913 35.6417 223.07 37.5839C225.221 39.4803 223.005 42.6817 217.723 38.2403Z" fill="black"/>
<path fill-rule="evenodd" clip-rule="evenodd" d="M278.98 140.221C282.141 142.143 286.958 146.624 283.557 151.389C279.554 155.59 273.791 150.773 270.951 148.595C268.318 146.906 265.36 151.249 267.803 153.22C288.324 168.418 296.652 140.723 280.579 137.961C278.809 137.657 278.152 139.626 278.98 140.221ZM242.206 122.542C242.555 118.206 249.158 117.221 249.814 121.512C250.403 125.356 249.71 128.887 247.979 132.348C246.325 135.654 242.169 134.112 241.854 131.101C241.433 127.065 241.989 125.24 242.206 122.542ZM292.464 120.623C293.385 119.417 294.714 118.594 296.306 119.059C301.281 120.513 299.815 127.578 298.068 131.017C297.118 132.884 294.05 133.358 292.663 131.714C290.402 129.032 289.32 123.677 292.193 121.036C292.271 120.899 292.358 120.762 292.464 120.623ZM247.909 103.568L248.695 103.43C251.126 103.01 254.149 102.606 255.869 104.561C256.781 105.597 257.095 107.524 255.869 108.517C253.712 110.263 251.328 109.586 248.744 109.734C246.614 109.856 244.567 110.209 242.515 110.795C238.014 112.082 234.347 114.431 230.503 117.01C229.999 117.349 229.484 116.703 229.725 116.232C231.944 111.884 236.244 108.313 240.551 106.136C242.85 104.974 245.366 104.01 247.909 103.568ZM287.929 101.62L288.531 101.744C295.076 103.112 303.581 105.846 306.68 112.277C306.799 113.187 306.674 113.382 306.572 113.509L306.539 113.551C306.455 113.66 306.388 113.81 305.994 113.934C305.885 113.908 305.774 113.88 305.663 113.851C304.242 113.478 303.118 112.965 302.029 112.433L300.849 111.851C299.48 111.18 298.099 110.533 296.636 110.055C293.512 109.036 290.299 108.318 287.036 107.935C286.329 107.852 285.648 107.613 285.111 107.204C284.601 106.816 284.211 106.278 284.034 105.563C283.804 104.638 283.87 103.938 284.366 103.103C284.739 102.477 285.273 102.042 285.886 101.793C286.511 101.539 287.222 101.479 287.929 101.62Z" fill="black"/>
<path fill-rule="evenodd" clip-rule="evenodd" d="M285.131 187.093C281.232 183.619 276.863 176.635 271.262 182.161C269.877 183.723 269.316 187.223 267.198 187.91C264.385 188.823 261.597 185.845 260.639 183.559C256.716 170.857 272.93 167.373 282.167 169.425C286.68 171.278 290.003 178.74 290.204 182.634C290.334 185.251 288.12 189.099 285.131 187.093ZM314.541 167.514C314.503 167.345 314.45 167.193 314.386 167.054C312.662 166.402 311.298 167.067 310.455 168.309C310.482 168.618 310.574 168.931 310.633 169.237C309.982 170.608 309.395 172.304 308.514 173.488C308.339 173.502 308.159 173.483 307.986 173.433C293.371 174.96 300.506 159.664 285.683 155.865C274.225 153.975 253.515 156.141 248.11 168.07C243.847 187.125 222.171 173.848 215.054 163.938C207.46 154.919 202.55 143.899 197.816 133.205C196.815 130.941 193.693 132.56 194.032 134.731C189.656 143.512 189.802 154.06 188.718 163.679C186.875 182.871 185.079 209.785 202.905 221.504C226.132 247.764 284.132 257.031 310.921 232.902C320.195 212.959 319.052 188.629 314.541 167.514Z" fill="black"/>
</svg>
