<svg xmlns="http://www.w3.org/2000/svg" fill="none" viewBox="0 0 32 32">
  <g clip-path="url(#a)">
    <path fill="#C4F1BE" stroke="#086375" d="M16 31c8.284 0 15-6.716 15-15 0-8.284-6.716-15-15-15C7.716 1 1 7.716 1 16c0 8.284 6.716 15 15 15Z"/>
    <path fill="#033F63" d="m12.113 14.63-.013-.004c-2.023-.747-2.665-2.996-1.572-4.7.89-.804 1.689-1.297 2.394-1.479 1.069-.295 1.74-.444 2.012-.447.848.093 2.34.337 3.478.955 1.14.618 2.47 3.086.798 4.86-.578.612-1.365.988-2.23 1.185.046-.176-.015-.373-.212-.604-.137-.159-.406-.268-.808-.327.027-.086.05-.182.068-.29.12-.727.076-1.439.094-2.167.026-1.05-.016-1.552-.094-2.081-.142-.958-.545-1.049-.975-1.062-1.015-.033-1.07 1.408-1.07 3.143 0 .777.008 1.469.071 1.945.016.116.026.219.047.307.018.072.037.138.059.199-.289.032-.575.075-.83.124-.408.08-.814.228-1.217.443Z"/>
    <path fill="#033F63" d="M11.009 16.944c1.045-.883 2.715-1.13 4.142-.996.87-.023 1.105.39.888.714-.217.324-.84.699-1.408.602-.18.048-1.49-.271-2.23.442-.415.751-.022 1.13 1.178 1.135h4.175c2.212.25 4.465 1.244 4.229 3.66a3.055 3.055 0 0 1-.94 1.92c-1.224 1.183-3.325 1.566-5.025 1.579-1.75.012-4.143-.276-5.484-1.467-1.255-1.115.121-3.143 1.716-2.45.685.297-.638 1.538.33 2.114.947.563 2.303.788 3.41.805 1.225.018 3.255-.21 3.793-1.39.68-1.494-1.35-1.814-2.455-1.99-2.153-.344-6.05.83-7.218-1.959-.1-.24-.121-.573-.105-.829.056-.904.432-1.408 1.004-1.89Zm6.604-7.322-.235-.095-.251-.09c-.276-1.157-.175-2.035.303-2.632.716-.895 2.478-1.138 3.335-.243.858.896.4 2.498-.94 2.543-1.338.044-1.613-1.076-1.48-1.15.09-.049.31-.174.658-.376.103-.48-.116-.708-.657-.685-.813.035-.909.945-.916 1.37-.008.426.097.948.14 1.283.004.03.019.056.043.075Z"/>
    <path fill="#32708A" d="M11.925 16.123c.958-.963 2.489-1.232 3.796-1.086.799-.025 1.014.425.815.778-.2.354-.77.763-1.29.657-.166.053-1.366-.296-2.045.482-.38.82-.02 1.232 1.08 1.238h3.827c2.027.273 4.093 1.357 3.876 3.991a3.61 3.61 0 0 1-.861 2.095C20 25.568 18.075 25.986 16.516 26c-1.604.014-3.797-.301-5.026-1.6-1.15-1.216.11-3.428 1.572-2.673.629.325-.584 1.678.304 2.307.867.614 2.11.86 3.125.877 1.122.02 2.984-.23 3.476-1.516.624-1.63-1.236-1.978-2.25-2.17-1.973-.375-5.545.904-6.616-2.136-.092-.262-.111-.625-.097-.904.052-.986.397-1.536.92-2.062Z"/>
    <path fill="#48BB78" d="m12.902 14.63-.012-.004c-1.82-.747-2.399-2.996-1.415-4.7.802-.804 1.52-1.297 2.155-1.479.961-.295 1.565-.444 1.811-.447.762.093 2.105.337 3.13.955 1.025.618 2.223 3.086.718 4.86-.52.612-1.228.988-2.007 1.185.041-.176-.013-.373-.191-.604-.123-.159-.365-.268-.727-.327.025-.086.046-.182.061-.29.108-.727.069-1.439.085-2.167.023-1.05-.014-1.552-.085-2.081-.127-.958-.49-1.049-.877-1.062-.914-.033-.963 1.408-.963 3.143 0 .777.007 1.469.064 1.945.014.116.023.219.042.307.016.072.034.138.053.199-.26.032-.518.075-.746.124-.368.08-.734.228-1.096.443ZM17.604 8l-.222-.053-.239-.049c-.26-.64-.165-1.124.287-1.453.678-.495 2.346-.629 3.158-.135.811.495.378 1.38-.89 1.404-1.267.025-1.528-.594-1.4-.635l.622-.207c.097-.265-.11-.391-.623-.378-.769.019-.86.521-.867.756-.007.235.093.523.133.708.004.017.018.031.04.042Z"/>
  </g>
  <defs>
    <clipPath id="a">
      <path fill="#fff" d="M0 0h32v32H0z"/>
    </clipPath>
  </defs>
</svg>
