<?xml version="1.0" standalone="no"?>
<!DOCTYPE svg PUBLIC "-//W3C//DTD SVG 20010904//EN"
 "http://www.w3.org/TR/2001/REC-SVG-20010904/DTD/svg10.dtd">
<svg version="1.0" xmlns="http://www.w3.org/2000/svg"
 width="700.000000pt" height="700.000000pt" viewBox="0 0 700.000000 700.000000"
 preserveAspectRatio="xMidYMid meet">
<metadata>
Created by potrace 1.14, written by Peter Selinger 2001-2017
</metadata>
<g transform="translate(0.000000,700.000000) scale(0.100000,-0.100000)"
fill="#000000" stroke="none">
<path d="M3185 6989 c-836 -84 -1579 -432 -2160 -1014 -588 -588 -939 -1341
-1015 -2180 -13 -141 -13 -449 0 -590 76 -839 427 -1592 1015 -2180 565 -565
1265 -903 2085 -1007 139 -17 639 -17 780 0 811 100 1521 443 2085 1007 565
565 903 1266 1007 2085 17 140 17 640 0 780 -104 820 -442 1521 -1007 2085
-552 552 -1256 898 -2035 1001 -146 19 -616 27 -755 13z m660 -130 c976 -101
1853 -617 2422 -1424 206 -292 376 -648 476 -995 201 -695 173 -1443 -80
-2125 -58 -156 -202 -450 -291 -592 -530 -849 -1401 -1421 -2377 -1562 -704
-102 -1397 11 -2024 329 -562 285 -1046 736 -1369 1276 -581 973 -636 2176
-146 3194 399 826 1105 1450 1974 1743 277 94 543 144 915 171 78 6 389 -4
500 -15z"/>
<path d="M4311 6429 c-291 -52 -473 -234 -522 -524 -14 -80 -6 -291 14 -401
l14 -71 -86 24 c-200 56 -371 87 -491 87 -124 0 -175 -11 -490 -106 -206 -62
-325 -125 -500 -265 -156 -125 -233 -206 -274 -288 -88 -182 -116 -288 -123
-475 -6 -166 8 -267 58 -404 78 -218 274 -433 471 -520 l53 -23 85 42 c107 54
216 88 345 109 153 25 146 22 135 51 -8 20 -6 25 7 25 17 0 17 -4 -8 140 -6
30 -12 249 -16 485 -9 702 21 912 145 999 78 55 209 46 281 -20 67 -60 99
-166 121 -404 18 -183 7 -1032 -14 -1155 -8 -49 -15 -93 -16 -96 0 -4 19 -9
42 -13 57 -9 127 -41 161 -74 41 -39 77 -114 77 -162 0 -39 1 -40 28 -34 147
36 337 129 455 224 162 129 277 306 344 525 25 83 27 103 27 265 0 158 -3 185
-26 272 -57 211 -156 388 -294 525 -74 74 -95 88 -221 150 l-139 68 -12 95
c-22 178 -24 236 -13 324 29 215 108 305 266 306 105 0 165 -44 150 -110 -5
-24 -25 -40 -102 -87 l-95 -58 6 -52 c15 -130 97 -247 208 -298 278 -125 558
29 599 330 10 70 9 92 -9 176 -43 209 -146 331 -332 395 -80 28 -223 39 -309
23z"/>
<path d="M2890 3509 c-174 -20 -374 -76 -505 -141 -150 -76 -326 -228 -393
-341 -98 -164 -137 -313 -130 -501 4 -109 8 -129 36 -195 96 -220 274 -383
503 -459 220 -72 354 -83 944 -80 411 3 471 1 565 -15 415 -73 604 -162 673
-316 15 -35 18 -60 15 -121 -6 -97 -38 -158 -127 -243 -166 -156 -433 -235
-832 -244 -369 -9 -681 48 -934 172 -206 101 -236 171 -176 407 39 152 42 177
28 217 -15 43 -74 75 -168 91 -125 21 -248 -19 -348 -115 -96 -91 -171 -262
-171 -388 0 -175 90 -305 310 -447 444 -285 1343 -384 2000 -220 494 124 812
363 949 713 65 166 75 220 75 397 0 140 -3 164 -28 245 -107 353 -423 589
-938 702 l-123 27 -700 6 c-732 7 -748 8 -828 53 -59 33 -80 75 -75 149 4 57
8 64 43 95 53 46 126 78 220 98 67 14 113 16 280 10 186 -6 204 -5 259 14 119
42 198 109 240 205 30 68 32 97 9 136 -31 54 -99 80 -231 90 -140 11 -339 11
-442 -1z"/>
</g>
</svg>
